<?xml version="1.0" standalone="no"?><!DOCTYPE svg PUBLIC "-//W3C//DTD SVG 1.1//EN" "http://www.w3.org/Graphics/SVG/1.1/DTD/svg11.dtd"><svg t="1736847649384" class="icon" viewBox="0 0 1072 1024" version="1.1" xmlns="http://www.w3.org/2000/svg" p-id="11576" xmlns:xlink="http://www.w3.org/1999/xlink" width="209.375" height="200"><path d="M1014.247619 594.895238c-19.504762-39.009524-48.761905-58.514286-82.895238-68.266667h-9.752381l-53.638095 29.257143c-39.009524-53.638095-68.266667-151.161905-97.52381-243.809524-48.761905-146.285714-87.771429-268.190476-160.914285-287.695238h-9.752381c-151.161905 39.009524-326.704762 97.52381-531.504762 170.666667-4.87619 0-9.752381 0-9.752381 4.876191-9.752381 4.87619-19.504762 14.628571-24.380953 29.257142-9.752381 19.504762-19.504762 68.266667 24.380953 151.161905l9.752381 19.504762 19.504762-4.87619c19.504762-4.87619 48.761905-19.504762 82.895238-34.133334 29.257143 78.019048 58.514286 175.542857 82.895238 263.314286 43.885714 151.161905 82.895238 292.571429 126.780952 355.961905 24.380952 29.257143 53.638095 43.885714 87.771429 43.885714 14.628571 0 34.133333-4.87619 48.761904-9.752381 9.752381-4.87619 19.504762-9.752381 24.380953-19.504762h4.87619l458.361905-263.314286 4.876191-4.87619c24.380952-48.761905 24.380952-92.647619 4.87619-131.657143zM92.647619 341.333333c-19.504762-48.761905-24.380952-78.019048-14.628571-92.647619 0-4.87619 0-4.87619 4.87619-9.752381h19.504762c14.628571 4.87619 34.133333 34.133333 53.638095 78.019048-24.380952 9.752381-48.761905 19.504762-63.390476 24.380952z m404.72381 624.152381c-29.257143 14.628571-58.514286 9.752381-78.019048-14.628571-39.009524-53.638095-78.019048-199.92381-117.028571-336.457143-58.514286-204.8-97.52381-341.333333-151.161905-394.971429 170.666667-58.514286 321.828571-107.27619 448.609524-141.409523 43.885714 19.504762 87.771429 146.285714 121.904761 253.561904 29.257143 92.647619 63.390476 190.171429 102.4 248.685715l-394.971428 190.171428h-4.876191-4.87619c-34.133333 34.133333-29.257143 87.771429 9.752381 156.038095l9.752381 29.257143 19.504762-14.628571c4.87619-4.87619 24.380952-14.628571 58.514285-29.257143v29.257143c-4.87619 14.628571-14.628571 24.380952-19.504761 24.380952z m-53.638096-146.285714c19.504762 9.752381 39.009524 24.380952 53.638096 43.885714-14.628571 9.752381-29.257143 14.628571-39.009524 19.504762-9.752381-19.504762-19.504762-43.885714-14.628572-63.390476z m526.628572-126.780952l-399.847619 229.180952c0-14.628571-4.87619-34.133333-14.628572-53.638095-14.628571-29.257143-39.009524-53.638095-63.390476-73.142857l438.857143-214.552381c19.504762 4.87619 34.133333 19.504762 43.885714 39.009523 9.752381 19.504762 4.87619 43.885714-4.87619 73.142858z" p-id="11577" fill="#d81e06"></path><path d="M526.628571 672.914286c4.87619 0 14.628571-4.87619 19.504762-9.752381 9.752381-9.752381 9.752381-24.380952 0-34.133334-34.133333-29.257143-63.390476-92.647619-92.647619-180.419047l97.52381 34.133333 53.638095-117.028571c4.87619-14.628571 0-24.380952-14.628571-34.133334-14.628571-4.87619-24.380952 0-34.133334 14.628572l-34.133333 78.019047-87.771429-29.257142h-4.87619c-4.87619-24.380952-9.752381-43.885714-14.628572-68.266667l97.52381 29.257143 34.133333-87.771429c4.87619-14.628571 0-24.380952-14.628571-34.133333-14.628571-4.87619-24.380952 0-34.133333 14.628571l-19.504762 48.761905-131.657143-39.009524 9.752381 39.009524c43.885714 195.047619 97.52381 316.952381 151.161905 370.590476 4.87619 0 9.752381 4.87619 19.504761 4.876191z" p-id="11578" fill="#d81e06"></path></svg>