<?xml version="1.0" standalone="no"?><!DOCTYPE svg PUBLIC "-//W3C//DTD SVG 1.1//EN" "http://www.w3.org/Graphics/SVG/1.1/DTD/svg11.dtd"><svg t="1737530359852" class="icon" viewBox="0 0 1024 1024" version="1.1" xmlns="http://www.w3.org/2000/svg" p-id="32763" xmlns:xlink="http://www.w3.org/1999/xlink" width="200" height="200"><path d="M491.66666667 525.3c86.4 0 151-110.4 151-209 0-92.8-59.3-152.8-151-152.8s-150.9 60-150.9 152.8c0 98.6 64.5 209 150.9 209z m0-323.8c70.7 0 113 42.9 113 114.8 0 77.5-50.4 171-113 171s-112.9-93.6-112.9-171c0-84.7 58.3-114.8 112.9-114.8zM491.66666667 584.1c-151 0-273.9 103.4-273.9 230.4 0 10.5 8.5 19 19 19h509.8c10.5 0 19-8.5 19-19 0-127.1-122.9-230.4-273.9-230.4zM256.96666667 795.4C268.66666667 698.2 369.46666667 622.1 491.66666667 622.1s223 76.2 234.7 173.4H256.96666667z" fill="#FF3333" p-id="32764"></path></svg>