<?xml version="1.0" standalone="no"?><!DOCTYPE svg PUBLIC "-//W3C//DTD SVG 1.1//EN" "http://www.w3.org/Graphics/SVG/1.1/DTD/svg11.dtd"><svg t="1737530877474" class="icon" viewBox="0 0 1024 1024" version="1.1" xmlns="http://www.w3.org/2000/svg" p-id="44368" xmlns:xlink="http://www.w3.org/1999/xlink" width="200" height="200"><path d="M608.393397 384.723222c0-54.084803-43.844577-97.92938-97.92938-97.92938-54.084803 0-97.928357 43.844577-97.928357 97.92938 0 54.084803 43.844577 97.928357 97.928357 97.928357C564.549843 482.652602 608.393397 438.808024 608.393397 384.723222zM561.715285 792.388968l72.488964-110.569258c116.284423-48.488341 198.027146-163.239851 198.027146-297.096489 0-177.707354-144.059-321.766354-321.766354-321.766354S188.698686 207.015867 188.698686 384.723222c0 133.856637 81.742722 248.608148 198.027146 297.096489l72.488964 110.569258c-106.711394 8.272407-186.577373 41.829687-186.577373 81.979106 0 46.359864 106.479103 83.938738 237.827617 83.938738s237.827617-37.579897 237.827617-83.938738C748.291634 834.219679 668.425655 800.662399 561.715285 792.388968zM332.609307 542.591739c-37.302581-41.995463-59.971883-97.280604-59.971883-157.868517 0-131.34749 106.479103-237.827617 237.827617-237.827617s237.827617 106.479103 237.827617 237.827617c0 60.58689-22.668279 115.871007-59.969836 157.865447-49.370431-37.606503-111.00621-59.936067-177.85778-59.936067C443.612447 482.652602 381.980761 504.985236 332.609307 542.591739zM510.465041 918.805146c-100.441597 0-181.868117-28.737508-181.868117-64.187905 0-29.218462 55.31891-53.872978 131.002636-61.639872l50.864458 77.586053 50.864458-77.586053c75.68475 7.766894 131.00366 32.42141 131.00366 61.639872C692.333158 890.067638 610.906637 918.805146 510.465041 918.805146z" p-id="44369"></path></svg>