<?xml version="1.0" standalone="no"?><!DOCTYPE svg PUBLIC "-//W3C//DTD SVG 1.1//EN" "http://www.w3.org/Graphics/SVG/1.1/DTD/svg11.dtd"><svg t="1737530193723" class="icon" viewBox="0 0 1024 1024" version="1.1" xmlns="http://www.w3.org/2000/svg" p-id="23729" xmlns:xlink="http://www.w3.org/1999/xlink" width="200" height="200"><path d="M989.59872 294.4c-24.00256-46.40256-60.00128-76.8-105.6-89.6-164.80256-48-550.4-159.20128-550.4-159.20128-40.00256-11.20256-88.00256-5.60128-134.4 15.20128-47.20128 20.80256-89.6 56.80128-120.00256 99.99872C23.19872 240.79872 0 316.8 0 420.80256l14.40256 251.20256c1.60256 21.60128 8.00256 43.20256 21.60128 62.40256 12.8 19.2 31.20128 33.60256 50.40128 42.39872l430.40256 195.2c16 7.1936 32.79872 11.20256 51.2 11.20256s35.2-3.99872 51.2-11.20256l328.80128-152.00256c19.99872-9.6 38.4-24.00256 51.2-44.8s19.2-42.39872 19.99872-64.79872l4.80256-256c-0.01024-35.20512-4.00896-102.40512-34.41152-160.00512z m-476.8-102.4l-87.19872-28.00128c-8.00256-2.40128-16.79872 1.60256-19.2 9.6-2.40128 7.99744 1.60256 16.79872 9.6 19.2l65.60256 20.80256C443.20256 244.80256 415.20128 280.80128 400 307.2l-12.00128 21.60128-21.60128-8.00256c-8.00256-3.2-16.79872 0.79872-19.99872 8.80128s0.79872 16.79872 8.80128 19.99872l19.2 7.19872c-8.80128 19.2-16 38.4-21.60128 58.39872l-40.00256-15.20128c-8.00256-3.2-16.79872 0.79872-19.99872 8.80128-3.2 8.00256 0.79872 16.79872 8.80128 19.99872L345.6 445.5936c-3.99872 19.2-6.4 40.00256-7.19872 62.40256L199.19872 454.4c2.40128-60.8 16-107.20256 37.60128-151.19872l67.2 26.39872c1.60256 0.79872 3.99872 0.79872 5.60128 0.79872 6.4 0 12.00128-3.99872 14.40256-9.6 3.2-8.00256-0.79872-16.79872-8.80128-19.99872l-64-24.80128c1.60256-3.99872 3.2-7.19872 4.80256-9.6 7.19872-12.00128 16.79872-25.6 28.8-40.80128l89.6 32c1.60256 0.79872 3.2 0.79872 4.80256 0.79872 6.4 0 12.00128-3.99872 14.40256-10.39872 3.2-8.00256-1.60256-16.79872-9.6-19.99872l-76.8-28.00128c12.8-12.00128 27.20256-24.00256 42.39872-33.60256 19.2-12.8 44.8-25.6 73.6-31.20128a9334.89664 9334.89664 0 0 1 126.40256 36.80256c-11.2128 5.6064-24.0128 12.0064-36.8128 20.00384z m-169.6 451.2l-67.99872-27.20256c-8.00256-3.2-16.79872 0.7936-19.99872 8.80128-3.2 8.00256 0.79872 16.79872 8.80128 19.99872l80.79872 32.7936 3.2 65.60256-19.99872-8.80128c-8.00256-3.2-16.79872 0-19.99872 8.00256s0 16.79872 8.00256 19.99872l33.60256 14.40256 3.2 54.4L213.60128 768l-3.2-51.99872 51.99872 22.4c2.40128 0.79872 3.99872 1.60256 6.4 1.60256 5.60128 0 11.20256-3.2 14.40256-9.6 3.2-8.00256 0-16.79872-8.00256-19.99872l-65.60256-28.00128-3.2-60.8 7.19872 2.40128c1.60256 0.79872 3.99872 0.79872 5.60128 0.79872 6.4 0 12.00128-3.99872 14.40256-9.6 3.2-8.00256-0.79872-16.79872-8.80128-19.99872L204.8 587.20256l-3.99872-67.2 139.20256 53.6064 3.19488 69.59104zM129.60256 196.80256C182.4 121.6 266.39872 91.20256 317.59872 104.80128c2.40128 0.79872 22.4 6.4 53.60128 15.20128-12.8 5.60128-25.6 12.8-37.60128 20.80256-49.60256 32-86.4 77.59872-104.80128 109.59872C195.99872 307.2 172.8 363.20256 168.80128 441.6l-106.39872-41.6C64 332.8 78.40256 270.40256 129.60256 196.80256z m-41.6 503.19872c-8.00256-11.20256-12.00128-24.80128-12.8-37.60128L64 467.99872l104.80128 40.80128 13.59872 245.60128-64-28.8c-11.19744-5.60128-22.4-14.40256-30.39744-25.6z m436.79744 196.79744c-7.19872 4.80256-16 4.80256-24.00256 1.60256l-115.99872-52.80256-13.59872-259.2 115.2 44.8c13.59872 4.80256 25.6 14.40256 33.60256 26.39872 8.8064 12.8 12.8 27.20256 13.59872 40.80128l2.40128 177.60256a25.14432 25.14432 0 0 1-11.20256 20.79744z m33.60256-431.19616c-6.4 18.40128-11.20256 37.60128-15.20128 56.80128-3.2 11.20256-10.39872 27.20256-24.00256 35.2-13.60384 7.99744-28.8 8.80128-42.39872 3.2l-108.00128-41.6c1.60256-82.40128 24.00256-139.20256 57.6-196.80256 16.79872-28.8 50.40128-70.4 95.20128-99.99872 22.4-14.40256 52.80256-29.59872 86.4-33.60256 44.00128 12.8 88.00256 25.6 128.79872 37.60128-5.60128 3.2-10.39872 6.4-16 9.6-34.40128 22.4-67.99872 55.19872-96 95.20128-27.19744 39.19872-50.39616 86.4-66.39616 134.4z m400 205.59872c-0.7936 22.4-7.1936 44.8-19.9936 64.79872s-31.2064 35.2-51.2 44.8l-255.2064 117.60128c-7.1936 3.2-16 3.2-23.1936-1.60256a25.15456 25.15456 0 0 1-11.20256-20.80256l-3.2-177.60256c0-14.40256 3.99872-28.8 12.8-42.39872 8.80128-12.8 20.80256-22.4 34.40128-28.0064l320.79872-128-4.00384 171.2128z m-316.00128-108.8c-42.39872 16-41.6-16.79872-37.60128-34.40128 12.8-58.39872 37.60128-113.60256 71.19872-160.79872 48-66.40128 107.20256-106.39872 159.20128-106.39872 45.59872 0 77.59872 19.99872 99.99872 62.40256 19.2 36.80256 24.80128 80.79872 27.20256 112 0-0.80384-320 127.19616-320 127.19616zM261.60128 380.00128l-15.20128-5.60128c-8.00256-3.2-16.79872 0.79872-19.99872 8.80128-3.2 8.00256 0.79872 16.79872 8.80128 19.99872l15.20128 5.60128C252.00128 409.6 254.40256 409.6 256 409.6c6.4 0 12.00128-3.99872 14.40256-9.6 3.2-7.99744-0.80384-16.79872-8.80128-19.99872z" fill="#515151" p-id="23730"></path></svg>